<svg id="Layer_3" enable-background="new 0 0 64 64" height="512" viewBox="0 0 64 64" width="512" xmlns="http://www.w3.org/2000/svg"><g><path d="m56 35h-6c-.352 0-.686.072-1 .184v-9.463l2.316-.772c.409-.137.684-.518.684-.949v-3c0-.431-.275-.812-.684-.949l-2.425-.808c-.338-1.287-1.5-2.243-2.891-2.243h-11.784c-1.768 0-3.304 1.135-3.823 2.824l-7.132 23.176h-.261v-33c0-.552-.447-1-1-1h-1v-2h1c.553 0 1-.448 1-1v-2c0-1.654-1.346-3-3-3s-3 1.346-3 3v2c0 .552.447 1 1 1h1v2h-1c-.553 0-1 .448-1 1v34 3h-2v-28c0-.552-.447-1-1-1h-3c-.553 0-1 .448-1 1v33.198l-8.217 1.826c-.458.101-.783.507-.783.976v2c0 .552.447 1 1 1h10c1.654 0 3-1.346 3-3v-2h2v1c0 1.654 1.346 3 3 3h1.263c.892 3.445 4.017 6 7.737 6s6.845-2.555 7.737-6h10.263c0 3.309 2.691 6 6 6s6-2.691 6-6h1c1.654 0 3-1.346 3-3v-12c0-3.86-3.141-7-7-7zm-37-31c0-.551.448-1 1-1s1 .449 1 1v1h-2zm27 33v-10h1v10zm.899 2c-.465 2.279-2.484 4-4.899 4h-2v-3c0-.551.448-1 1-1zm3.101-15.721-1 .333v-2.225l1 .333zm-17.695-2.868c.258-.844 1.027-1.411 1.911-1.411h11.784c.552 0 1 .449 1 1v5h-2c-.553 0-1 .448-1 1v11h-3c-1.654 0-3 1.346-3 3v3h-3v-3c0-.239-.085-.47-.241-.651l-2.166-2.527 2.394-2.395c.452.374 1.001.572 1.557.572.629 0 1.258-.239 1.736-.718.464-.464.72-1.081.72-1.737s-.256-1.273-.72-1.737l-3.088-3.088c-.957-.958-2.516-.958-3.473 0-.463.464-.719 1.081-.719 1.737 0 .578.208 1.118.572 1.558l-2.132 2.132-.776-.905zm.829 9.367c-.116-.116-.134-.252-.134-.322s.018-.206.134-.322c.116-.117.252-.134.322-.134s.206.017.322.133l3.088 3.089c.116.116.134.252.134.322s-.018.206-.134.322c-.116.117-.252.134-.322.134s-.206-.017-.322-.133zm-.164 2.666.586.586-2.269 2.27-.541-.631zm-5.001 2.056 5.031 5.87v2.63h-7.646zm-8.969-23.5h2v32h-2zm-6 44c0 .551-.448 1-1 1h-9v-.198l8.217-1.826c.458-.101.783-.507.783-.976v-33h1zm2-4v-2h2v2zm14 10c-3.309 0-6-2.691-6-6s2.691-6 6-6 6 2.691 6 6-2.691 6-6 6zm24 0c-2.206 0-4-1.794-4-4s1.794-4 4-4 4 1.794 4 4-1.794 4-4 4zm8-7c0 .551-.448 1-1 1h-1.35c-.826-2.327-3.043-4-5.65-4s-4.824 1.673-5.65 4h-10.35c0-4.411-3.589-8-8-8s-8 3.589-8 8h-1c-.552 0-1-.449-1-1v-9h3 2 18c3.859 0 7-3.14 7-7 0-.551.448-1 1-1h6c2.757 0 5 2.243 5 5z"/><path d="m29 51c-2.206 0-4 1.794-4 4s1.794 4 4 4 4-1.794 4-4-1.794-4-4-4zm0 6c-1.103 0-2-.897-2-2s.897-2 2-2 2 .897 2 2-.897 2-2 2z"/><path d="m53 54c-1.654 0-3 1.346-3 3s1.346 3 3 3 3-1.346 3-3-1.346-3-3-3zm0 4c-.552 0-1-.449-1-1s.448-1 1-1 1 .449 1 1-.448 1-1 1z"/><path d="m51 39h2v6h-2z"/><path d="m54 39h2v6h-2z"/><path d="m57 39h2v6h-2z"/></g></svg>